<svg xmlns="http://www.w3.org/2000/svg"
     viewBox="0 0 1500 1500"
     preserveAspectRatio="xMidYMid meet">

<style>
:root {
  color: #000000;
}

@media (prefers-color-scheme: dark) {
  :root {
    color: #FFFFFF;
  }
}

path {
  fill: currentColor;
}
</style>

<path d="m 160.41766,421.25518 v 657.48962 h 64.78816 c 25.75758,0 44.1256,5.092 55.09228,15.2761 10.97846,10.1964 16.47356,23.6707 16.47356,40.4166 0,16.7583 -5.4951,30.3187 -16.47356,40.6873 -10.96668,10.3809 -29.3347,15.5713 -55.09228,15.5713 H 53.315996 V 309.30385 H 224.66454 c 25.77525,0 44.14914,5.19045 55.11582,15.57135 10.97846,10.36858 16.47356,23.9228 16.47356,40.6626 0,16.38313 -5.4951,29.76513 -16.47356,40.14603 -10.96668,10.3809 -29.34057,15.57135 -55.11582,15.57135 z"/>

<path d="M 749.7411,763.38199 650.47614,1081.2047 H 530.3133 L 466.58415,531.28776 c -16.37942,-2.17703 -28.75224,-8.09315 -37.11257,-17.73607 -8.34268,-9.65523 -12.51991,-21.94872 -12.51991,-36.87433 0,-17.47779 5.48335,-31.49324 16.45003,-42.04017 10.96668,-10.55925 29.3347,-15.84193 55.11582,-15.84193 l 142.61395,0.54118 c 25.77525,0 44.14914,5.10434 55.11583,15.30075 10.97846,10.18411 16.47356,23.6522 16.47356,40.39202 0,16.7644 -5.4951,30.33091 -16.47356,40.71181 -10.96669,10.3686 -29.34058,15.54674 -55.11583,15.54674 h -55.89242 l 35.53582,312.90286 84.10929,-260.48178 h 111.26712 l 83.59155,260.48178 35.53582,-312.90286 h -55.89244 c -25.78111,0 -44.1609,-5.17814 -55.13935,-15.54674 -10.96668,-10.3809 -16.45003,-23.94741 -16.45003,-40.71181 0,-16.73982 5.48335,-30.29402 16.45003,-40.66262 10.97845,-10.38089 29.35824,-15.57133 55.13935,-15.57133 l 142.09619,0.54118 c 25.7753,0 44.1492,5.10434 55.1158,15.30075 10.9667,10.18411 16.4501,23.6522 16.4501,40.39202 0,14.20608 -4.3538,26.40732 -13.0612,36.60373 -8.7075,10.18411 -21.245,16.73981 -37.6068,19.65482 L 970.72213,1081.2047 H 852.65379 Z"/>

<path d="M 1339.5823,1078.7448 V 421.25518 h -64.7881 c -25.7811,0 -44.1491,-5.19045 -55.1158,-15.57135 -10.9667,-10.3809 -16.4501,-23.7629 -16.4501,-40.14603 0,-16.7398 5.4834,-30.29402 16.4501,-40.6626 10.9667,-10.3809 29.3347,-15.57135 55.1158,-15.57135 h 171.8898 v 881.39225 h -171.3721 c -25.7811,0 -44.1491,-5.1904 -55.1158,-15.5713 -10.9667,-10.3686 -16.45,-23.929 -16.45,-40.6873 0,-16.3831 5.4833,-29.7651 16.45,-40.146 10.9667,-10.3686 29.3347,-15.5467 55.1158,-15.5467 z"/>
</svg>